<?xml version="1.0" standalone="no"?>
<!DOCTYPE svg PUBLIC "-//W3C//DTD SVG 20010904//EN"
 "http://www.w3.org/TR/2001/REC-SVG-20010904/DTD/svg10.dtd">
<svg version="1.0" xmlns="http://www.w3.org/2000/svg"
 width="50.000000pt" height="50.000000pt" viewBox="0 0 50.000000 50.000000"
 preserveAspectRatio="xMidYMid meet">

<g transform="translate(0.000000,50.000000) scale(0.100000,-0.100000)"
fill="#FFFFFF" stroke="none">
<path d="M180 451 c-98 -32 -160 -107 -160 -193 0 -41 35 -112 68 -138 25 -20
25 -21 9 -56 -9 -19 -17 -37 -17 -41 0 -10 63 7 89 24 16 10 42 16 67 14 161
-10 284 134 229 267 -20 48 -50 79 -100 104 -43 22 -144 33 -185 19z m175 -37
c21 -11 53 -37 69 -58 27 -33 31 -46 31 -96 0 -50 -4 -63 -31 -96 -45 -56 -96
-79 -177 -80 -44 -1 -73 -6 -85 -16 -9 -8 -24 -18 -33 -21 -14 -5 -15 -1 -7
26 9 29 7 35 -31 74 -44 47 -57 90 -46 151 8 44 74 112 126 130 49 16 138 9
184 -14z"/>
<path d="M170 295 c0 -24 5 -35 15 -35 19 0 19 -5 -2 -41 -23 -39 -7 -51 23
-16 18 22 24 40 24 78 0 48 -1 49 -30 49 -28 0 -30 -3 -30 -35z"/>
<path d="M270 295 c0 -24 5 -35 15 -35 19 0 19 -5 -2 -41 -23 -39 -7 -51 23
-16 18 22 24 40 24 78 0 48 -1 49 -30 49 -28 0 -30 -3 -30 -35z"/>
</g>
</svg>
