<?xml version="1.0" standalone="no"?>
<!DOCTYPE svg PUBLIC "-//W3C//DTD SVG 20010904//EN"
 "http://www.w3.org/TR/2001/REC-SVG-20010904/DTD/svg10.dtd">
<svg version="1.0" xmlns="http://www.w3.org/2000/svg"
 width="80.000000pt" height="80.000000pt" viewBox="0 0 80.000000 80.000000"
 preserveAspectRatio="xMidYMid meet">

<g transform="translate(0.000000,80.000000) scale(0.100000,-0.100000)"
fill="white" stroke="none">
<path d="M182 708 c-6 -7 -33 -73 -62 -145 -54 -141 -57 -168 -14 -179 23 -6
24 -10 24 -83 0 -84 9 -101 50 -101 22 0 27 -7 40 -51 8 -29 22 -56 31 -62 11
-7 69 6 210 48 107 32 208 62 226 67 17 5 35 17 38 27 7 22 -72 299 -90 319
-13 14 -408 172 -430 172 -7 0 -17 -6 -23 -12z m208 -77 l175 -69 -212 -4
c-209 -3 -213 -3 -207 17 14 44 53 125 61 125 4 0 87 -31 183 -69z m-25 -149
c-104 -32 -196 -61 -202 -65 -10 -6 -13 6 -13 51 0 32 3 62 7 65 3 4 94 7 202
6 l196 0 -190 -57z m305 -98 c35 -120 40 -148 29 -155 -19 -12 -79 -23 -86
-15 -3 3 -11 0 -17 -8 -15 -19 -326 -110 -337 -99 -16 16 -92 284 -83 293 5 4
82 29 172 56 139 41 165 46 173 33 9 -12 10 -12 6 1 -2 10 7 19 27 27 70 26
69 27 116 -133z m-540 76 c0 -61 -4 -67 -29 -51 -12 7 -11 17 5 60 10 28 19
51 21 51 2 0 3 -27 3 -60z m58 -238 c-5 -2 -15 -1 -23 2 -11 4 -15 22 -14 73
l1 68 22 -70 c13 -38 19 -72 14 -73z"/>
<path d="M574 479 c-10 -17 13 -36 27 -22 12 12 4 33 -11 33 -5 0 -12 -5 -16
-11z"/>
<path d="M530 450 c0 -5 5 -10 11 -10 5 0 7 5 4 10 -3 6 -8 10 -11 10 -2 0 -4
-4 -4 -10z"/>
<path d="M540 410 c0 -5 5 -10 11 -10 5 0 7 5 4 10 -3 6 -8 10 -11 10 -2 0 -4
-4 -4 -10z"/>
<path d="M550 370 c0 -5 5 -10 10 -10 6 0 10 5 10 10 0 6 -4 10 -10 10 -5 0
-10 -4 -10 -10z"/>
<path d="M560 330 c0 -5 5 -10 10 -10 6 0 10 5 10 10 0 6 -4 10 -10 10 -5 0
-10 -4 -10 -10z"/>
</g>
</svg>
